<svg id="Layer_1"
 data-name="Layer 1"
 xmlns="http://www.w3.org/2000/svg"
 viewBox="0 0 427.08 427.08">
 <!--<defs><style>.cls-1{fill:none;}.cls-1,.cls-2{stroke:#000;stroke-miterlimit:10;}</style></defs>-->
 <title>logo-cryptobridge</title>
 <path d="M417.79,120.84c-3.45-8.69-13.3-18.83-21.89-22.53L274.7,46c-8.59-3.7-22.72-3.91-31.41-.46L120.63,94.3c-8.69,3.45-18.83,13.3-22.53,21.89L45.81,237.38c-3.7,8.59-3.91,22.72-.46,31.41L94.09,391.46c3.45,8.69,13.3,18.83,21.89,22.53l121.2,52.28c8.59,3.7,22.72,3.91,31.41.46L391.25,418c8.69-3.45,18.83-13.3,22.53-21.89l52.28-121.2c3.7-8.59,3.91-22.72.46-31.41ZM256,433.62A177.31,177.31,0,1,1,433.31,256.31,177.31,177.31,0,0,1,256,433.62Z" transform="translate(-42.39 -42.61)"/><path class="cls-1" d="M417.79,120.84c-3.45-8.69-13.3-18.83-21.89-22.53L274.7,46c-8.59-3.7-22.72-3.91-31.41-.46L120.63,94.3c-8.69,3.45-18.83,13.3-22.53,21.89L45.81,237.38c-3.7,8.59-3.91,22.72-.46,31.41L94.09,391.46c3.45,8.69,13.3,18.83,21.89,22.53l121.2,52.28c8.59,3.7,22.72,3.91,31.41.46L391.25,418c8.69-3.45,18.83-13.3,22.53-21.89l52.28-121.2c3.7-8.59,3.91-22.72.46-31.41ZM256,433.62A177.31,177.31,0,1,1,433.31,256.31,177.31,177.31,0,0,1,256,433.62Z" transform="translate(-42.39 -42.61)"/><path class="cls-2" d="M256.22,196A59.75,59.75,0,1,0,316,255.72,59.75,59.75,0,0,0,256.22,196ZM257,291a36,36,0,1,1,36-36A36,36,0,0,1,257,291Z" transform="translate(-42.39 -42.61)"/><path class="cls-2" d="M260.68,97.8a157.74,157.74,0,0,0-36,4.13,2.23,2.23,0,0,0,.54,4.41h.24C319.13,102.84,384,176,384,262c0,80.09-63.5,151.84-157.87,153-2.25,0-2.12,5,.57,5a206.31,206.31,0,0,0,34.55,2.37c80.13-1,158.66-74.22,158.66-163.28C419.91,173.34,348.62,97.8,260.68,97.8Z" transform="translate(-42.39 -42.61)"/><path class="cls-2" d="M254,146a111.66,111.66,0,0,0-25,2.82,1.52,1.52,0,0,0,.38,3h.17c65.59.78,107.47,54.51,105.8,108.26C333.87,307.32,294,355,230,362.29c-1.55.18-1.48,3.41.4,3.41a173,173,0,0,0,24,1.62c64.28,0,113.28-50.59,113.28-111.32C367.67,197.54,324.33,146,254,146Z" transform="translate(-42.39 -42.61)"/>
 <path class="cls-2" d="M229.27,392a136.26,136.26,0,0,0,30.66-3.48,1.88,1.88,0,0,0-.46-3.71h-.2c-79.83,2.94-133.63-59.51-133-131.82.5-59.25,52-126.84,132.49-127.78,1.92,0,1.81-4.21-.49-4.21a178.28,178.28,0,0,0-29.46-2C160.46,119.85,93.5,174.5,93.5,256.36,93.5,328.46,154.29,392,229.27,392Z" transform="translate(-42.39 -42.61)"/>
 <path class="cls-2" d="M232,342.5c7.14,0,18.74-1.74,25.41-3.13a1.15,1.15,0,0,0-.31-2.27s-.83-1.09-.88-1.09c-53.46-3.09-78.77-42-78.77-79.85,0-36.35,24.68-77.75,79.15-78.33,1.3,0,1.18-4.06-.38-4.06-.06,0-17-3.63-28.42-3.5-46.25.52-83.05,37.8-83.05,88C144.75,302.52,177.85,342.5,232,342.5Z" transform="translate(-42.39 -42.61)"/>
 </svg>